<svg width="68" height="53" viewBox="0 0 68 53" fill="none" xmlns="http://www.w3.org/2000/svg">
<path d="M56.5 5.875V41.5H11.5V5.875C11.5 2.82812 13.9609 0.25 17.125 0.25H50.875C53.9219 0.25 56.5 2.82812 56.5 5.875ZM44.5469 16.0703C45.6016 14.8984 45.3672 13.1406 44.0781 12.2031C42.9062 11.1484 41.1484 11.3828 40.2109 12.6719L31.6562 23.4531L27.3203 19.7031C26.1484 18.7656 24.3906 18.8828 23.3359 20.0547C22.3984 21.2266 22.5156 22.9844 23.5703 23.9219L30.1328 29.5469C30.6016 30.0156 31.3047 30.25 32.0078 30.25C32.125 30.25 32.2422 30.25 32.3594 30.25C33.0625 30.25 33.7656 29.7812 34.2344 29.1953L44.5469 16.0703ZM62.125 30.25C65.1719 30.25 67.75 32.8281 67.75 35.875V47.125C67.75 50.2891 65.1719 52.75 62.125 52.75H5.875C2.71094 52.75 0.25 50.2891 0.25 47.125V35.875C0.25 32.8281 2.71094 30.25 5.875 30.25H7.75V43.375C7.75 44.4297 8.57031 45.25 9.625 45.25H58.375C59.3125 45.25 60.25 44.4297 60.25 43.375V30.25H62.125Z" fill="white"/>
</svg>
