<svg width="61" height="61" viewBox="0 0 61 61" fill="none" xmlns="http://www.w3.org/2000/svg">
<path d="M41.75 30.5C41.75 33.1953 41.5156 35.6562 41.2812 38H19.6016C19.3672 35.6562 19.1328 33.1953 19.1328 30.5C19.1328 27.9219 19.3672 25.4609 19.6016 23H41.2812C41.5156 25.4609 41.75 27.9219 41.75 30.5ZM59.4453 23C60.1484 25.4609 60.5 27.9219 60.5 30.5C60.5 33.1953 60.1484 35.6562 59.4453 38H45.0312C45.2656 35.6562 45.5 33.0781 45.5 30.5C45.5 27.9219 45.2656 25.4609 45.0312 23H59.4453ZM58.2734 19.25H44.5625C43.3906 11.8672 41.0469 5.53906 38.1172 1.55469C47.2578 4.01562 54.7578 10.5781 58.2734 19.25ZM40.8125 19.25H20.0703C20.7734 15.0312 21.9453 11.2812 23.2344 8.23438C24.5234 5.42188 25.8125 3.42969 27.2188 2.14062C28.5078 0.96875 29.5625 0.5 30.5 0.5C31.3203 0.5 32.375 0.96875 33.6641 2.14062C35.0703 3.42969 36.3594 5.42188 37.6484 8.23438C38.9375 11.2812 40.1094 15.0312 40.8125 19.25ZM2.60938 19.25C6.125 10.5781 13.625 4.01562 22.7656 1.55469C19.8359 5.53906 17.4922 11.8672 16.3203 19.25H2.60938ZM15.8516 23C15.6172 25.4609 15.3828 27.9219 15.3828 30.5C15.3828 33.0781 15.6172 35.6562 15.8516 38H1.4375C0.734375 35.6562 0.5 33.1953 0.5 30.5C0.5 27.9219 0.734375 25.4609 1.4375 23H15.8516ZM23.2344 52.8828C21.9453 49.8359 20.7734 46.0859 20.0703 41.75H40.8125C40.1094 46.0859 38.9375 49.8359 37.6484 52.8828C36.3594 55.6953 35.0703 57.6875 33.6641 58.9766C32.375 60.1484 31.3203 60.5 30.3828 60.5C29.5625 60.5 28.5078 60.1484 27.2188 58.9766C25.8125 57.6875 24.5234 55.6953 23.2344 52.8828ZM22.7656 59.5625C13.625 57.1016 6.125 50.5391 2.60938 41.75H16.3203C17.4922 49.25 19.8359 55.5781 22.7656 59.5625ZM38.1172 59.5625C41.0469 55.5781 43.3906 49.25 44.5625 41.75H58.2734C54.7578 50.5391 47.2578 57.1016 38.1172 59.5625Z" fill="white"/>
</svg>
