<svg width="63" height="63" viewBox="0 0 63 63" fill="none" xmlns="http://www.w3.org/2000/svg">
<path d="M61.0938 54.5312C62.8516 56.4062 62.8516 59.3359 61.0938 61.2109C59.2188 62.9688 56.2891 62.9688 54.4141 61.2109L40.4688 47.1484C35.6641 50.3125 29.8047 51.9531 23.4766 51.0156C12.6953 49.6094 4.02344 40.8203 2.61719 30.1562C0.625 14.1016 13.9844 0.742188 30.0391 2.73438C40.7031 4.14062 49.4922 12.8125 51.0156 23.5938C51.8359 29.9219 50.1953 35.7812 47.0312 40.4688L61.0938 54.5312ZM36.25 29.6875C37.7734 29.6875 39.0625 28.5156 39.0625 26.875C39.0625 25.3516 37.7734 24.0625 36.1328 24.0625H29.5703V17.5C29.5703 15.9766 28.1641 14.6875 26.7578 14.6875C25.2344 14.6875 24.0625 15.9766 24.0625 17.5V24.0625H17.3828C15.8594 24.0625 14.6875 25.3516 14.6875 26.875C14.6875 28.5156 15.8594 29.6875 17.3828 29.6875H24.0625V36.25C24.0625 37.8906 25.2344 39.0625 26.875 39.0625C28.2812 39.0625 29.5703 37.8906 29.5703 36.25V29.6875H36.25Z" fill="white"/>
</svg>
